<svg width="40" height="40" viewBox="0 0 40 40" fill="none" xmlns="http://www.w3.org/2000/svg">
  <path d="M7.83236 10.249L3.33398 14.5224L10.4113 19.303L14.0819 12.2641L7.83236 10.249Z" fill="url(#paint0_linear_282_2621)"/>
  <path d="M31.1058 10.2354L35.6207 14.4916L28.573 19.2687L24.8496 12.2504L31.1058 10.2354Z" fill="url(#paint1_linear_282_2621)"/>
  <path d="M31.1055 10.2354L30.502 10.4307L31.1846 17.497L35.6203 14.4916L31.1055 10.2354Z" fill="url(#paint2_linear_282_2621)"/>
  <path d="M24.8828 12.24L26.8682 16.0164L29.2625 10.8486L24.8828 12.24Z" fill="url(#paint3_linear_282_2621)"/>
  <path d="M10.4121 19.3031L19.4979 19.2894L28.5804 19.2723L26.7336 15.7563L24.8834 12.2402L19.4847 12.2539L14.0827 12.2642L12.2491 15.7837L10.4121 19.3031Z" fill="url(#paint4_radial_282_2621)"/>
  <path d="M10.4121 19.3033L28.5804 19.2725L19.4913 32.2914L10.4121 19.3033Z" fill="url(#paint5_linear_282_2621)"/>
  <path d="M10.4121 19.3033L28.5804 19.2725L19.4913 32.2914L10.4121 19.3033Z" fill="url(#paint6_radial_282_2621)"/>
  <path d="M3.33398 14.5225L19.4905 32.2911L10.4113 19.303L3.33398 14.5225Z" fill="url(#paint7_linear_282_2621)"/>
  <path d="M35.6199 14.4917L19.5293 32.322L28.5722 19.2688L35.6199 14.4917Z" fill="url(#paint8_linear_282_2621)"/>
  <path d="M25.3177 8.3335L31.1451 10.2492L24.8823 12.2402L14.0816 12.2642L7.83203 10.2492L13.6628 8.3335H25.3177Z" fill="url(#paint9_linear_282_2621)"/>
  <path d="M13.6628 8.3335L7.83203 10.2491L11.4729 11.4246L15.2854 8.3335H13.6628Z" fill="url(#paint10_linear_282_2621)"/>
  <path d="M19.3479 8.3335L16.6172 12.2608L21.7751 12.2471L22.57 8.3335H19.3479Z" fill="url(#paint11_linear_282_2621)"/>
  <path d="M31.1463 10.2492L25.3189 8.3335H24.0723L24.7253 12.2402H24.8836L31.1463 10.2492Z" fill="url(#paint12_linear_282_2621)"/>
  <path style="mix-blend-mode:multiply" d="M14.0827 12.2642L19.4979 19.2894L10.4121 19.3031L14.0827 12.2642Z" fill="url(#paint13_linear_282_2621)"/>
  <path style="mix-blend-mode:multiply" d="M24.8836 12.2402L19.498 19.2894L28.5805 19.2723L24.8836 12.2402Z" fill="url(#paint14_linear_282_2621)"/>
  <path style="mix-blend-mode:multiply" d="M10.4121 19.3031L24.8834 12.2402L28.5804 19.2723L10.4121 19.3031Z" fill="url(#paint15_linear_282_2621)"/>
  <path style="mix-blend-mode:multiply" d="M7.83236 10.249L10.4113 19.303L3.33398 14.5224L7.83236 10.249Z" fill="url(#paint16_linear_282_2621)"/>
  <path d="M7.83203 10.2491L27.4415 9.03259L25.3177 8.3335H13.6628L7.83203 10.2491Z" fill="url(#paint17_linear_282_2621)"/>
  <path opacity="0.3" d="M19.5309 32.3221L15.7119 19.2964L10.4121 19.3032L19.5309 32.3221Z" fill="url(#paint18_linear_282_2621)"/>
  <path opacity="0.5" d="M19.5293 32.3222L28.5788 19.2725L22.4941 19.2827L19.5293 32.3222Z" fill="url(#paint19_linear_282_2621)"/>
  <path d="M31.1454 10.249C30.6309 10.4307 30.1098 10.6089 29.5921 10.7871C29.0743 10.9653 28.5565 11.1366 28.0354 11.3114L26.4788 11.8323L24.9156 12.3395L24.9024 12.3463H24.8892C23.9889 12.3463 23.0886 12.3566 22.1882 12.3532L19.4905 12.3395C19.0387 12.3395 18.5902 12.3326 18.1417 12.3257L16.7895 12.3086C16.341 12.3052 15.8892 12.2949 15.4407 12.2846C14.9888 12.2743 14.5403 12.2675 14.0918 12.2538C14.5403 12.2366 14.9888 12.2298 15.4407 12.2195C15.8892 12.2092 16.341 12.1989 16.7895 12.1955L18.1417 12.1784C18.5902 12.1715 19.0387 12.1647 19.4905 12.1647L22.1882 12.1544C23.0886 12.1475 23.9889 12.1578 24.8892 12.1613L24.8628 12.1647L26.4294 11.6712L27.9992 11.188C28.5235 11.0304 29.0446 10.8659 29.5723 10.7117C30.0967 10.5574 30.621 10.3998 31.1454 10.249Z" fill="url(#paint20_linear_282_2621)"/>
  <path d="M19.4908 32.2912L18.9005 31.4961L18.3134 30.6976C17.9243 30.163 17.5351 29.6319 17.1493 29.0938L15.9917 27.4832L14.8407 25.8691C14.4582 25.3311 14.0756 24.793 13.6963 24.2516L12.5586 22.6272C11.8033 21.5443 11.0448 20.4614 10.2995 19.3682L10.25 19.2962L10.2896 19.2243C10.5996 18.6383 10.9096 18.0557 11.2262 17.4731L12.1694 15.7254C12.486 15.1462 12.8059 14.5637 13.1258 13.9879L13.604 13.1175L14.0921 12.2539L13.6535 13.1449L13.2115 14.0359C12.918 14.6288 12.6245 15.2216 12.3244 15.8145L11.4274 17.5862C11.1272 18.1756 10.8238 18.7651 10.5204 19.3545L10.5105 19.2071C11.279 20.2832 12.0342 21.3695 12.796 22.449L13.9272 24.0768C14.3065 24.6183 14.6791 25.1632 15.0551 25.708L16.1764 27.3461L17.2911 28.9876C17.6605 29.5325 18.0298 30.0842 18.3959 30.636L18.9433 31.4619L19.4908 32.2912Z" fill="url(#paint21_linear_282_2621)"/>
  <path d="M33.8592 15.6843C33.2623 16.0715 32.6686 16.4622 32.0783 16.8528L30.3007 18.0283C29.7302 18.4018 29.1695 18.7856 28.6023 19.1626L26.7785 15.7425L25.8353 13.9982L24.8888 12.2539L25.7858 14.0256L26.6862 15.7974L28.4341 19.2003L24.0313 19.19C23.2761 19.1832 22.5176 19.19 21.7624 19.19L19.4901 19.1969C18.7316 19.2003 17.9763 19.2003 17.2178 19.2071L14.9455 19.2277C14.1903 19.2311 13.4318 19.2414 12.6766 19.2517C11.918 19.262 11.1628 19.2723 10.4043 19.2894C11.1628 19.3031 11.918 19.3134 12.6766 19.3237C13.4318 19.3374 14.1903 19.3442 14.9455 19.3511L17.2178 19.3682C17.9763 19.3785 18.7316 19.3751 19.4901 19.3785L21.7624 19.3853C22.5176 19.3888 23.2761 19.3922 24.0313 19.3888L28.4044 19.3751L26.2245 22.4799L23.9621 25.7389C23.5839 26.2803 23.2091 26.8241 22.8375 27.3701L21.7162 29.0047C21.3402 29.5496 20.9709 30.0979 20.5982 30.6462C20.2288 31.1945 19.8562 31.7394 19.4901 32.2912C19.8793 31.7566 20.2651 31.222 20.651 30.6874C21.0368 30.1493 21.4227 29.6147 21.8052 29.0733L22.9562 27.4592C23.341 26.9223 23.7224 26.3831 24.1006 25.8417L26.3828 22.5998L28.6353 19.3545C29.219 18.957 29.806 18.5663 30.3865 18.1654L32.141 16.9591C32.728 16.5547 33.315 16.1538 33.8955 15.7459C34.4792 15.3381 35.0662 14.9338 35.6467 14.5225C35.0497 14.9064 34.4528 15.297 33.8592 15.6843Z" fill="url(#paint22_linear_282_2621)"/>
  <path d="M3.33398 14.5225L4.23102 15.0948L5.12806 15.6739L6.0218 16.2496C6.32191 16.4415 6.61872 16.6403 6.91554 16.8322L8.69642 18.0008L9.58686 18.5868L10.474 19.1762L10.4047 19.1557L12.677 19.142L14.946 19.1351L17.2183 19.1385L19.4905 19.1488C20.2458 19.1557 21.0043 19.1557 21.7628 19.1694L24.0318 19.1968L25.1696 19.2105L26.3041 19.2345L27.4386 19.2585L28.5763 19.2893L27.4386 19.3167L26.3041 19.3407L25.1696 19.3647L24.0318 19.3784L21.7628 19.4093C21.0043 19.4195 20.2458 19.423 19.4905 19.4264L17.2183 19.4367L14.946 19.4401L12.677 19.4367L10.4047 19.423H10.3652L10.3355 19.4024L9.45494 18.7993L8.57769 18.1927L6.8232 16.9796C6.53298 16.774 6.23946 16.5752 5.94924 16.3696L5.07529 15.7562L4.20464 15.1427L3.33398 14.5225Z" fill="url(#paint23_linear_282_2621)"/>
  <path d="M23.5401 12.1852C23.0883 12.1681 22.6397 12.1475 22.1879 12.1373C21.7394 12.1201 21.2909 12.1098 20.8391 12.0996C20.3906 12.0893 19.9387 12.079 19.4902 12.0756L18.1414 12.0584L16.7892 12.0516C16.3407 12.0482 15.8889 12.0516 15.4404 12.0516L14.141 12.0584L13.3627 11.8151C13.1021 11.7329 12.8416 11.6541 12.5778 11.5752L11.7928 11.3354L11.0046 11.1058C10.743 11.0281 10.4803 10.9527 10.2164 10.8796C9.9526 10.8076 9.68877 10.7322 9.42493 10.6603C8.89397 10.5163 8.3663 10.3758 7.83203 10.249C8.34321 10.4546 8.85769 10.6465 9.37216 10.8385C9.6294 10.9344 9.88664 11.0235 10.1439 11.1195C10.4011 11.2131 10.6595 11.3045 10.9189 11.3936L11.6939 11.6643L12.4722 11.9282C12.7328 12.0139 12.9933 12.1064 13.2538 12.1887L13.8079 12.3703C13.6892 12.5896 13.5737 12.8124 13.4583 13.0351L13.0032 13.9158C12.8482 14.2106 12.7031 14.5087 12.5514 14.8034C12.403 15.0981 12.2513 15.3928 12.1061 15.691L11.6675 16.582L11.2355 17.4798L10.8134 18.3811C10.6748 18.6827 10.5363 18.9843 10.4044 19.2893C10.5792 19.0083 10.7474 18.7238 10.9156 18.436L11.4169 17.5792L11.905 16.7156L12.3865 15.8486C12.5481 15.5608 12.7064 15.2695 12.8647 14.9782C13.0197 14.6869 13.1813 14.399 13.333 14.1043L13.8013 13.227C13.9398 12.97 14.075 12.7061 14.2102 12.4457L15.4404 12.4525C15.8889 12.456 16.3407 12.456 16.7892 12.4525L18.1414 12.4491L19.4902 12.432C19.9387 12.4251 20.3906 12.4148 20.8391 12.4046C21.2909 12.3977 21.7394 12.384 22.1879 12.3703C22.6397 12.3566 23.0883 12.3395 23.5401 12.3189C23.9886 12.3006 24.4382 12.2789 24.8889 12.2538C24.4382 12.2264 23.9886 12.2035 23.5401 12.1852Z" fill="url(#paint24_linear_282_2621)"/>
  <path style="mix-blend-mode:screen" d="M15.5267 12.7647C15.7246 11.8943 15.2068 11.0238 14.3724 10.8182C13.5347 10.6126 12.6971 11.1506 12.4992 12.0211C12.3013 12.8881 12.8191 13.7619 13.6535 13.9676C14.4911 14.1732 15.3288 13.6351 15.5267 12.7647Z" fill="url(#paint25_radial_282_2621)"/>
  <path style="mix-blend-mode:screen" d="M14.0425 12.8572C14.0788 12.6825 14.2371 12.5591 14.4119 12.5694L16.1202 12.6756L14.4515 12.2815C14.28 12.2404 14.1612 12.0793 14.1711 11.8977L14.2734 10.1226L13.8974 11.8566C13.8578 12.0348 13.6995 12.1582 13.5247 12.1444L11.8164 12.0416L13.4885 12.4323C13.6567 12.4734 13.7754 12.6345 13.7655 12.8161L13.6632 14.5947L14.0425 12.8572Z" fill="url(#paint26_radial_282_2621)"/>
  <path style="mix-blend-mode:screen" d="M11.4105 19.3512C11.5095 18.9194 11.2522 18.4842 10.8334 18.3814C10.4178 18.2786 9.99901 18.5459 9.90007 18.9811C9.80113 19.4129 10.0584 19.8481 10.4772 19.9509C10.8927 20.0537 11.3116 19.7864 11.4105 19.3512Z" fill="url(#paint27_radial_282_2621)"/>
  <defs>
    <linearGradient id="paint0_linear_282_2621" x1="14.5797" y1="16.1935" x2="8.36362" y2="23.8506" gradientUnits="userSpaceOnUse">
      <stop stop-color="#7CC4F4"/>
      <stop offset="1" stop-color="#699BF4"/>
    </linearGradient>
    <linearGradient id="paint1_linear_282_2621" x1="24.8416" y1="10.2592" x2="35.6056" y2="10.2198" gradientUnits="userSpaceOnUse">
      <stop stop-color="#3872D6"/>
      <stop offset="1" stop-color="#224EEF"/>
    </linearGradient>
    <linearGradient id="paint2_linear_282_2621" x1="35.036" y1="19.1582" x2="28.3208" y2="17.6376" gradientUnits="userSpaceOnUse">
      <stop stop-color="#3872D6"/>
      <stop offset="1" stop-color="#224EEF"/>
    </linearGradient>
    <linearGradient id="paint3_linear_282_2621" x1="29.6604" y1="22.2363" x2="22.2743" y2="14.3743" gradientUnits="userSpaceOnUse">
      <stop stop-color="#3872D6"/>
      <stop offset="1" stop-color="#224EEF"/>
    </linearGradient>
    <radialGradient id="paint4_radial_282_2621" cx="0" cy="0" r="1" gradientUnits="userSpaceOnUse" gradientTransform="translate(25.547 18.7406) scale(12.7822 13.2822)">
      <stop stop-color="#52F7FA"/>
      <stop offset="1" stop-color="#456FFF"/>
    </radialGradient>
    <linearGradient id="paint5_linear_282_2621" x1="23.7901" y1="18.8322" x2="24.6721" y2="32.7662" gradientUnits="userSpaceOnUse">
      <stop offset="0.005" stop-color="#0D61D1"/>
      <stop offset="1" stop-color="#237FFA"/>
    </linearGradient>
    <radialGradient id="paint6_radial_282_2621" cx="0" cy="0" r="1" gradientUnits="userSpaceOnUse" gradientTransform="translate(19.6745 16.2491) scale(14.9059 15.4889)">
      <stop stop-color="#52F7FA"/>
      <stop offset="1" stop-color="#456FFF"/>
    </radialGradient>
    <linearGradient id="paint7_linear_282_2621" x1="15.1419" y1="8.08494" x2="24.362" y2="18.4226" gradientUnits="userSpaceOnUse">
      <stop offset="0.005" stop-color="#004294"/>
      <stop offset="1" stop-color="#0053BA"/>
    </linearGradient>
    <linearGradient id="paint8_linear_282_2621" x1="42.6379" y1="25.2091" x2="34.09" y2="34.5346" gradientUnits="userSpaceOnUse">
      <stop stop-color="#1837C7"/>
      <stop offset="1" stop-color="#04197A"/>
    </linearGradient>
    <linearGradient id="paint9_linear_282_2621" x1="7.83332" y1="8.33377" x2="31.1461" y2="8.33377" gradientUnits="userSpaceOnUse">
      <stop stop-color="#B8DEE1"/>
      <stop offset="1" stop-color="#6EB9FF"/>
    </linearGradient>
    <linearGradient id="paint10_linear_282_2621" x1="12.8681" y1="8.34631" x2="32.4592" y2="8.66369" gradientUnits="userSpaceOnUse">
      <stop stop-color="#B8DEE1"/>
      <stop offset="1" stop-color="#6EB9FF"/>
    </linearGradient>
    <linearGradient id="paint11_linear_282_2621" x1="12.7001" y1="8.1922" x2="32.4982" y2="8.51295" gradientUnits="userSpaceOnUse">
      <stop stop-color="#B8DEE1"/>
      <stop offset="1" stop-color="#6EB9FF"/>
    </linearGradient>
    <linearGradient id="paint12_linear_282_2621" x1="12.7996" y1="8.05722" x2="32.267" y2="8.37264" gradientUnits="userSpaceOnUse">
      <stop stop-color="#B8DEE1"/>
      <stop offset="1" stop-color="#6EB9FF"/>
    </linearGradient>
    <linearGradient id="paint13_linear_282_2621" x1="16.1528" y1="22.7784" x2="8.30881" y2="16.0017" gradientUnits="userSpaceOnUse">
      <stop stop-color="white"/>
      <stop offset="1" stop-color="#B8C8FF"/>
    </linearGradient>
    <linearGradient id="paint14_linear_282_2621" x1="19.7097" y1="18.2515" x2="22.2527" y2="10.3743" gradientUnits="userSpaceOnUse">
      <stop stop-color="white"/>
      <stop offset="1" stop-color="#B8C8FF"/>
    </linearGradient>
    <linearGradient id="paint15_linear_282_2621" x1="10.5945" y1="13.7878" x2="28.2103" y2="10.4784" gradientUnits="userSpaceOnUse">
      <stop stop-color="white"/>
      <stop offset="1" stop-color="#B8C8FF"/>
    </linearGradient>
    <linearGradient id="paint16_linear_282_2621" x1="14.2095" y1="17.0329" x2="8.42937" y2="23.2001" gradientUnits="userSpaceOnUse">
      <stop stop-color="white"/>
      <stop offset="1" stop-color="#B8C8FF"/>
    </linearGradient>
    <linearGradient id="paint17_linear_282_2621" x1="7.83612" y1="8.16081" x2="27.4713" y2="8.4788" gradientUnits="userSpaceOnUse">
      <stop stop-color="#CDE0E1"/>
      <stop offset="1" stop-color="#85C4FF"/>
    </linearGradient>
    <linearGradient id="paint18_linear_282_2621" x1="6.4667" y1="34.0081" x2="5.19801" y2="16.6103" gradientUnits="userSpaceOnUse">
      <stop offset="0.005" stop-color="#0D61D1"/>
      <stop offset="1" stop-color="#237FFA"/>
    </linearGradient>
    <linearGradient id="paint19_linear_282_2621" x1="15.4577" y1="34.0624" x2="14.1022" y2="15.4742" gradientUnits="userSpaceOnUse">
      <stop stop-color="#0E67DE"/>
      <stop offset="1" stop-color="#3489FA"/>
    </linearGradient>
    <linearGradient id="paint20_linear_282_2621" x1="24.3976" y1="9.70466" x2="30.8353" y2="7.9978" gradientUnits="userSpaceOnUse">
      <stop stop-color="#ADC3F0"/>
      <stop offset="1" stop-color="#598AF0"/>
    </linearGradient>
    <linearGradient id="paint21_linear_282_2621" x1="28.9226" y1="3.31198" x2="39.3905" y2="17.5925" gradientUnits="userSpaceOnUse">
      <stop stop-color="#ADC3F0"/>
      <stop offset="1" stop-color="#598AF0"/>
    </linearGradient>
    <linearGradient id="paint22_linear_282_2621" x1="24.7174" y1="42.0409" x2="20.8214" y2="38.1576" gradientUnits="userSpaceOnUse">
      <stop stop-color="#ADC3F0"/>
      <stop offset="1" stop-color="#598AF0"/>
    </linearGradient>
    <linearGradient id="paint23_linear_282_2621" x1="10.7198" y1="14.4412" x2="27.0988" y2="14.661" gradientUnits="userSpaceOnUse">
      <stop stop-color="#ADC3F0"/>
      <stop offset="1" stop-color="#598AF0"/>
    </linearGradient>
    <linearGradient id="paint24_linear_282_2621" x1="15.5607" y1="7.70874" x2="26.5233" y2="16.2491" gradientUnits="userSpaceOnUse">
      <stop stop-color="white"/>
      <stop offset="1" stop-color="#ADC3F0"/>
    </linearGradient>
    <radialGradient id="paint25_radial_282_2621" cx="0" cy="0" r="1" gradientUnits="userSpaceOnUse" gradientTransform="translate(14.0132 12.3922) rotate(46.0989) scale(1.58762 1.58646)">
      <stop stop-color="white"/>
      <stop offset="0.995"/>
    </radialGradient>
    <radialGradient id="paint26_radial_282_2621" cx="0" cy="0" r="1" gradientUnits="userSpaceOnUse" gradientTransform="translate(13.9686 12.3577) rotate(46.0989) scale(1.7713 1.77)">
      <stop stop-color="white"/>
      <stop offset="0.995"/>
    </radialGradient>
    <radialGradient id="paint27_radial_282_2621" cx="0" cy="0" r="1" gradientUnits="userSpaceOnUse" gradientTransform="translate(10.6554 19.1659) rotate(46.0989) scale(0.792599 0.792016)">
      <stop stop-color="white"/>
      <stop offset="0.995"/>
    </radialGradient>
  </defs>
</svg>
